<svg width="180" height="19" viewBox="0 0 180 19" fill="none" xmlns="http://www.w3.org/2000/svg">
<path d="M12.0273 13.392L12.4593 13.08C13.0033 12.76 13.3873 12.6 13.6113 12.6C14.1073 12.6 14.6433 13.048 15.2193 13.944C15.5713 14.504 15.7473 14.952 15.7473 15.288C15.7473 15.624 15.6353 15.904 15.4113 16.128C15.2033 16.352 14.9553 16.552 14.6673 16.728C14.3793 16.904 14.0993 17.072 13.8273 17.232C13.5713 17.392 13.0353 17.6 12.2193 17.856C11.4033 18.112 10.6113 18.24 9.84332 18.24C9.09132 18.24 8.32332 18.144 7.53932 17.952C6.77132 17.744 5.97132 17.408 5.13932 16.944C4.32332 16.464 3.58732 15.888 2.93132 15.216C2.27532 14.528 1.73132 13.656 1.29932 12.6C0.883317 11.528 0.675317 10.368 0.675317 9.12C0.675317 7.872 0.883317 6.744 1.29932 5.736C1.71532 4.712 2.24332 3.872 2.88332 3.216C3.53932 2.544 4.28332 1.984 5.11532 1.536C6.68332 0.671999 8.25932 0.24 9.84332 0.24C10.5953 0.24 11.3553 0.36 12.1233 0.599999C12.9073 0.823999 13.4993 1.056 13.8993 1.296L14.4753 1.632C14.7633 1.808 14.9873 1.952 15.1473 2.064C15.5633 2.4 15.7713 2.784 15.7713 3.216C15.7713 3.632 15.6033 4.072 15.2673 4.536C14.6433 5.4 14.0833 5.832 13.5873 5.832C13.2993 5.832 12.8913 5.656 12.3633 5.304C11.6913 4.76 10.7953 4.488 9.67532 4.488C8.63532 4.488 7.61132 4.848 6.60332 5.568C6.12332 5.92 5.72332 6.416 5.40332 7.056C5.08332 7.696 4.92332 8.424 4.92332 9.24C4.92332 10.04 5.08332 10.76 5.40332 11.4C5.72332 12.04 6.13132 12.544 6.62732 12.912C7.60332 13.616 8.61932 13.968 9.67532 13.968C10.1713 13.968 10.6353 13.904 11.0673 13.776C11.5153 13.648 11.8353 13.52 12.0273 13.392ZM30.7884 15.024C31.0284 15.6 31.1484 16.016 31.1484 16.272C31.1484 16.88 30.6524 17.392 29.6604 17.808C29.1484 18.032 28.7324 18.144 28.4124 18.144C28.1084 18.144 27.8524 18.072 27.6444 17.928C27.4524 17.768 27.3084 17.608 27.2124 17.448C27.0524 17.144 26.4284 15.696 25.3404 13.104L24.5964 13.152H21.5724V15.864C21.5724 16.232 21.5564 16.512 21.5244 16.704C21.5084 16.88 21.4364 17.088 21.3084 17.328C21.0844 17.76 20.4604 17.976 19.4364 17.976C18.3164 17.976 17.6604 17.68 17.4684 17.088C17.3724 16.816 17.3244 16.4 17.3244 15.84V2.52C17.3244 2.152 17.3324 1.88 17.3484 1.704C17.3804 1.512 17.4604 1.296 17.5884 1.056C17.8124 0.623999 18.4364 0.407999 19.4604 0.407999H24.6444C26.0524 0.407999 27.4204 0.919999 28.7484 1.944C29.3884 2.44 29.9164 3.112 30.3324 3.96C30.7484 4.808 30.9564 5.752 30.9564 6.792C30.9564 8.6 30.3564 10.088 29.1564 11.256C29.5084 12.104 30.0524 13.36 30.7884 15.024ZM21.5724 8.904H24.6444C25.1084 8.904 25.5724 8.728 26.0364 8.376C26.5004 8.024 26.7324 7.496 26.7324 6.792C26.7324 6.088 26.5004 5.56 26.0364 5.208C25.5724 4.84 25.0924 4.656 24.5964 4.656H21.5724V8.904ZM45.9643 0.743999C46.7483 1.288 47.1403 1.816 47.1403 2.328C47.1403 2.632 46.9563 3.056 46.5883 3.6L41.4043 11.352V15.936C41.4043 16.304 41.3883 16.584 41.3563 16.776C41.3403 16.952 41.2683 17.16 41.1403 17.4C41.0123 17.64 40.7963 17.808 40.4923 17.904C40.1883 18 39.7803 18.048 39.2683 18.048C38.7563 18.048 38.3483 18 38.0443 17.904C37.7403 17.808 37.5243 17.64 37.3963 17.4C37.2683 17.144 37.1883 16.928 37.1563 16.752C37.1403 16.56 37.1323 16.272 37.1323 15.888V11.352L31.9483 3.6C31.5803 3.056 31.3963 2.632 31.3963 2.328C31.3963 1.816 31.7483 1.328 32.4523 0.863999C33.1563 0.383999 33.6603 0.144 33.9643 0.144C34.2683 0.144 34.5083 0.207999 34.6843 0.335999C34.9563 0.511999 35.2443 0.839999 35.5483 1.32L39.2683 7.272L42.9883 1.32C43.2923 0.839999 43.5563 0.527999 43.7803 0.383999C44.0043 0.224 44.2603 0.144 44.5483 0.144C44.8523 0.144 45.3243 0.343999 45.9643 0.743999ZM61.4334 3.96C61.8494 4.808 62.0574 5.752 62.0574 6.792C62.0574 7.832 61.8494 8.776 61.4334 9.624C61.0174 10.456 60.4814 11.12 59.8254 11.616C58.4974 12.64 57.1214 13.152 55.6974 13.152H52.6974V15.864C52.6974 16.232 52.6814 16.512 52.6494 16.704C52.6334 16.88 52.5614 17.088 52.4334 17.328C52.2094 17.76 51.5854 17.976 50.5614 17.976C49.4414 17.976 48.7854 17.68 48.5934 17.088C48.4974 16.816 48.4494 16.4 48.4494 15.84V2.52C48.4494 2.152 48.4574 1.88 48.4734 1.704C48.5054 1.512 48.5854 1.296 48.7134 1.056C48.9374 0.623999 49.5614 0.407999 50.5854 0.407999H55.7214C57.1294 0.407999 58.4974 0.919999 59.8254 1.944C60.4814 2.44 61.0174 3.112 61.4334 3.96ZM55.7214 8.904C56.2014 8.904 56.6734 8.728 57.1374 8.376C57.6014 8.024 57.8334 7.496 57.8334 6.792C57.8334 6.088 57.6014 5.56 57.1374 5.208C56.6734 4.84 56.1934 4.656 55.6974 4.656H52.6974V8.904H55.7214ZM63.7576 0.383999H77.1016C77.6136 0.383999 77.9896 0.447999 78.2296 0.576C78.4696 0.687999 78.6296 0.871999 78.7096 1.128C78.7896 1.384 78.8296 1.72 78.8296 2.136C78.8296 2.552 78.7896 2.888 78.7096 3.144C78.6296 3.384 78.4936 3.552 78.3016 3.648C78.0136 3.792 77.6056 3.864 77.0776 3.864H72.4936V15.936C72.4936 16.304 72.4776 16.576 72.4456 16.752C72.4296 16.928 72.3576 17.136 72.2296 17.376C72.1176 17.6 71.9096 17.76 71.6056 17.856C71.3016 17.952 70.9016 18 70.4056 18C69.9096 18 69.5096 17.952 69.2056 17.856C68.9176 17.76 68.7096 17.6 68.5816 17.376C68.4696 17.136 68.3976 16.928 68.3656 16.752C68.3496 16.56 68.3416 16.28 68.3416 15.912V3.864H63.7336C63.2216 3.864 62.8456 3.808 62.6056 3.696C62.3656 3.568 62.2056 3.376 62.1256 3.12C62.0456 2.864 62.0056 2.528 62.0056 2.112C62.0056 1.696 62.0456 1.368 62.1256 1.128C62.2056 0.871999 62.3416 0.695999 62.5336 0.599999C62.8216 0.455999 63.2296 0.383999 63.7576 0.383999ZM86.9866 0.191999C89.3546 0.191999 91.4106 1.048 93.1546 2.76C94.8986 4.472 95.7706 6.6 95.7706 9.144C95.7706 11.672 94.9386 13.832 93.2746 15.624C91.6106 17.4 89.5626 18.288 87.1306 18.288C84.6986 18.288 82.6266 17.408 80.9146 15.648C79.2186 13.888 78.3706 11.792 78.3706 9.36C78.3706 8.032 78.6106 6.792 79.0906 5.64C79.5706 4.472 80.2106 3.496 81.0106 2.712C81.8106 1.928 82.7306 1.312 83.7706 0.863999C84.8106 0.415999 85.8826 0.191999 86.9866 0.191999ZM82.6186 9.24C82.6186 10.664 83.0746 11.824 83.9866 12.72C84.9146 13.6 85.9466 14.04 87.0826 14.04C88.2186 14.04 89.2426 13.608 90.1546 12.744C91.0666 11.88 91.5226 10.72 91.5226 9.264C91.5226 7.808 91.0586 6.64 90.1306 5.76C89.2186 4.88 88.1946 4.44 87.0586 4.44C85.9226 4.44 84.8986 4.888 83.9866 5.784C83.0746 6.664 82.6186 7.816 82.6186 9.24ZM109.868 8.568C110.812 9.688 111.284 10.944 111.284 12.336C111.252 13.936 110.7 15.28 109.628 16.368C108.572 17.44 107.284 17.976 105.764 17.976H99.452C98.332 17.976 97.676 17.672 97.484 17.064C97.388 16.792 97.34 16.376 97.34 15.816V2.496C97.34 2.112 97.348 1.832 97.364 1.656C97.396 1.48 97.476 1.272 97.604 1.032C97.828 0.599999 98.452 0.383999 99.476 0.383999H105.524C106.996 0.383999 108.228 0.895999 109.22 1.92C110.26 2.96 110.78 4.208 110.78 5.664C110.78 6.72 110.476 7.688 109.868 8.568ZM107.036 12.096C107.036 11.712 106.988 11.408 106.892 11.184C106.812 10.96 106.668 10.8 106.46 10.704C106.14 10.576 105.692 10.512 105.116 10.512C104.54 10.512 104.108 10.4 103.82 10.176C103.532 9.952 103.388 9.496 103.388 8.808C103.388 8.104 103.532 7.64 103.82 7.416C104.124 7.192 104.62 7.08 105.308 7.08C105.948 7.08 106.332 6.912 106.46 6.576C106.508 6.4 106.532 6.112 106.532 5.712C106.532 5.312 106.396 5.032 106.124 4.872C105.868 4.712 105.476 4.632 104.948 4.632H101.588V13.728H105.524C106.532 13.728 107.036 13.184 107.036 12.096ZM126.32 15.024C126.56 15.6 126.68 16.016 126.68 16.272C126.68 16.88 126.184 17.392 125.192 17.808C124.68 18.032 124.264 18.144 123.944 18.144C123.64 18.144 123.384 18.072 123.176 17.928C122.984 17.768 122.84 17.608 122.744 17.448C122.584 17.144 121.96 15.696 120.872 13.104L120.128 13.152H117.104V15.864C117.104 16.232 117.088 16.512 117.056 16.704C117.04 16.88 116.968 17.088 116.84 17.328C116.616 17.76 115.992 17.976 114.968 17.976C113.848 17.976 113.192 17.68 113 17.088C112.904 16.816 112.856 16.4 112.856 15.84V2.52C112.856 2.152 112.864 1.88 112.88 1.704C112.912 1.512 112.992 1.296 113.12 1.056C113.344 0.623999 113.968 0.407999 114.992 0.407999H120.176C121.584 0.407999 122.952 0.919999 124.28 1.944C124.92 2.44 125.448 3.112 125.864 3.96C126.28 4.808 126.488 5.752 126.488 6.792C126.488 8.6 125.888 10.088 124.688 11.256C125.04 12.104 125.584 13.36 126.32 15.024ZM117.104 8.904H120.176C120.64 8.904 121.104 8.728 121.568 8.376C122.032 8.024 122.264 7.496 122.264 6.792C122.264 6.088 122.032 5.56 121.568 5.208C121.104 4.84 120.624 4.656 120.128 4.656H117.104V8.904ZM138.148 1.656L144.628 15.048C144.9 15.592 145.036 16 145.036 16.272C145.036 16.848 144.572 17.368 143.644 17.832C143.1 18.104 142.668 18.24 142.348 18.24C142.044 18.24 141.788 18.168 141.58 18.024C141.388 17.88 141.244 17.728 141.148 17.568C141.068 17.408 140.948 17.168 140.788 16.848L139.54 14.256H132.892L131.644 16.848C131.484 17.168 131.356 17.4 131.26 17.544C131.18 17.688 131.036 17.84 130.828 18C130.636 18.144 130.38 18.216 130.06 18.216C129.756 18.216 129.332 18.08 128.788 17.808C127.86 17.36 127.396 16.848 127.396 16.272C127.396 16 127.532 15.592 127.804 15.048L134.284 1.632C134.46 1.264 134.724 0.967999 135.076 0.743999C135.444 0.519999 135.828 0.407999 136.228 0.407999C137.092 0.407999 137.732 0.823999 138.148 1.656ZM136.204 7.416L134.62 10.704H137.812L136.204 7.416ZM164.396 0.503999C165.468 0.887999 166.004 1.4 166.004 2.04C166.004 2.248 165.908 2.64 165.716 3.216L161.108 16.536C161.076 16.648 161.02 16.784 160.94 16.944C160.86 17.104 160.644 17.32 160.292 17.592C159.956 17.848 159.548 17.976 159.068 17.976C158.604 17.976 158.196 17.848 157.844 17.592C157.508 17.32 157.284 17.056 157.172 16.8L154.364 8.52C152.588 13.768 151.684 16.44 151.652 16.536C151.62 16.632 151.548 16.768 151.436 16.944C151.324 17.12 151.196 17.28 151.052 17.424C150.684 17.792 150.244 17.976 149.732 17.976C149.22 17.976 148.796 17.856 148.46 17.616C148.14 17.376 147.924 17.136 147.812 16.896L147.644 16.536L143.012 3.216C142.836 2.688 142.748 2.296 142.748 2.04C142.748 1.4 143.284 0.895999 144.356 0.527999C144.82 0.367999 145.236 0.287999 145.604 0.287999C145.988 0.287999 146.276 0.415999 146.468 0.671999C146.676 0.927999 146.86 1.32 147.02 1.848L149.66 9.864L152.276 1.968C152.5 1.296 152.908 0.831999 153.5 0.576C153.756 0.463999 154.084 0.407999 154.484 0.407999C154.9 0.407999 155.284 0.543999 155.636 0.816C155.988 1.072 156.212 1.328 156.308 1.584L159.068 9.912L161.708 1.848C161.836 1.48 161.94 1.208 162.02 1.032C162.1 0.855999 162.244 0.687999 162.452 0.527999C162.676 0.351999 162.948 0.263999 163.268 0.263999C163.588 0.263999 163.964 0.343999 164.396 0.503999ZM171.572 14.448H178.1C178.628 14.448 179.012 14.512 179.252 14.64C179.492 14.752 179.652 14.936 179.732 15.192C179.812 15.448 179.852 15.792 179.852 16.224C179.852 16.64 179.812 16.976 179.732 17.232C179.652 17.488 179.516 17.664 179.324 17.76C179.02 17.92 178.604 18 178.076 18H169.436C168.316 18 167.66 17.696 167.468 17.088C167.372 16.832 167.324 16.424 167.324 15.864V2.52C167.324 2.152 167.332 1.88 167.348 1.704C167.38 1.512 167.46 1.296 167.588 1.056C167.812 0.623999 168.436 0.407999 169.46 0.407999C170.58 0.407999 171.244 0.703999 171.452 1.296C171.532 1.568 171.572 1.984 171.572 2.544V14.448Z" fill="#FF1F70"/>
</svg>
